<?xml version="1.0" standalone="no"?>
<!DOCTYPE svg PUBLIC "-//W3C//DTD SVG 20010904//EN"
 "http://www.w3.org/TR/2001/REC-SVG-20010904/DTD/svg10.dtd">
<svg version="1.0" xmlns="http://www.w3.org/2000/svg"
 width="303.000000pt" height="287.000000pt" viewBox="0 0 303.000000 287.000000"
 preserveAspectRatio="xMidYMid meet">

<g transform="translate(0.000000,287.000000) scale(0.100000,-0.100000)"
fill="#000000" stroke="none">
<path d="M1705 2430 c-145 -27 -292 -101 -399 -201 -40 -37 -72 -59 -87 -59
-39 0 -121 -45 -161 -86 -105 -111 -103 -282 5 -385 l34 -33 -26 -55 c-22 -47
-26 -70 -26 -146 0 -82 3 -97 33 -157 58 -118 179 -208 327 -245 45 -11 66
-21 70 -34 10 -29 61 -60 102 -61 25 -1 63 10 107 31 127 60 263 101 331 100
22 0 11 -6 -41 -23 -97 -31 -226 -101 -324 -176 -68 -52 -86 -61 -108 -55 -56
13 -204 71 -397 155 -206 90 -292 116 -348 105 -17 -3 -75 -27 -127 -53 -129
-64 -177 -65 -306 -5 -124 58 -166 55 -180 -13 -11 -58 67 -122 209 -171 86
-30 275 -42 372 -24 l59 11 51 -48 c337 -325 618 -462 951 -462 207 0 385 52
528 154 221 157 296 385 196 592 -32 66 -136 186 -181 209 l-28 15 32 54 c32
54 32 54 87 58 101 7 193 70 234 158 29 63 28 170 -1 226 -41 77 -114 131
-194 141 -37 5 -40 9 -54 56 -55 186 -239 357 -441 411 -73 20 -232 28 -299
16z m-268 -331 c15 -5 39 -21 53 -34 l26 -24 64 25 c145 59 316 4 379 -122 47
-94 27 -217 -47 -297 -33 -35 -103 -72 -155 -81 -37 -7 -37 -7 -23 -34 35 -69
27 -150 -21 -223 -56 -84 -182 -131 -305 -111 -251 38 -376 263 -243 436 l34
45 -19 45 c-32 71 -36 150 -11 221 23 64 76 129 126 151 36 16 104 18 142 3z"/>
<path d="M1316 1859 c-19 -22 -26 -42 -26 -73 0 -49 13 -66 51 -66 57 0 99 93
69 151 -17 30 -63 25 -94 -12z"/>
<path d="M1582 1825 c-78 -66 -59 -168 28 -145 56 15 91 118 52 153 -26 23
-45 21 -80 -8z"/>
<path d="M1310 1596 c0 -21 34 -54 63 -61 27 -7 97 18 97 35 0 15 -41 29 -106
36 -46 6 -54 4 -54 -10z"/>
<path d="M381 1540 l-114 -38 59 -16 c33 -10 87 -28 122 -41 l62 -23 58 22
c31 12 84 31 117 41 l61 19 -116 38 c-63 21 -119 37 -125 37 -5 0 -61 -18
-124 -39z"/>
<path d="M243 1339 l2 -150 80 -35 c44 -20 99 -44 123 -55 l42 -18 0 153 0
153 -42 12 c-24 7 -80 30 -125 51 l-82 38 2 -149z"/>
<path d="M767 1483 c-4 -4 -56 -28 -115 -53 l-107 -46 -3 -147 c-1 -88 1 -147
7 -147 11 0 213 90 224 100 4 3 6 73 5 154 -2 81 -7 144 -11 139z"/>
</g>
</svg>
